<?xml version="1.0" encoding="utf-8"?>
<!-- Generator: Adobe Illustrator 22.0.1, SVG Export Plug-In . SVG Version: 6.00 Build 0)  -->
<svg version="1.1" id="レイヤー_1" xmlns="http://www.w3.org/2000/svg" xmlns:xlink="http://www.w3.org/1999/xlink" x="0px"
	 y="0px" viewBox="0 0 883.7 210.6" style="enable-background:new 0 0 883.7 210.6;" xml:space="preserve">
<style type="text/css">
	.st0{fill:#FFFFFF;}
</style>
<g>
	<polygon class="st0" points="461,189.1 461,0 501.1,0 611,131 611,0 651.2,0 651.2,189.1 611,189.1 501.1,58 501.1,189.1 	"/>
	<polygon class="st0" points="427.5,40.4 427.5,0 426.3,0 241,0 241,189.1 427.5,189.1 427.5,148.6 426.3,148.6 280.9,148.6 
		280.9,115.2 377.4,115.2 377.4,75.3 280.9,75.3 280.9,40.4 	"/>
	<path class="st0" d="M148.6,0H0v189.1h147l0.1,0.1l59.7-40.2V38.6L148.6,0z M166.5,132l-25,16.9H40.2V40.2h101.4l25,16.6L166.5,132
		L166.5,132z"/>
	<polygon class="st0" points="883.7,0 831.5,0 779.9,62.8 728.3,0 676.1,0 753.8,94.5 676.1,189.1 728.3,189.1 779.9,126.2 
		831.5,189.1 883.7,189.1 806,94.5 	"/>
</g>
</svg>
